<?xml version="1.0" standalone="no"?>
<!DOCTYPE svg PUBLIC "-//W3C//DTD SVG 20010904//EN"
 "http://www.w3.org/TR/2001/REC-SVG-20010904/DTD/svg10.dtd">
<svg version="1.0" xmlns="http://www.w3.org/2000/svg"
 width="324.000000pt" height="324.000000pt" viewBox="0 0 324.000000 324.000000"
 preserveAspectRatio="xMidYMid meet">
<metadata>
Created by potrace 1.14, written by Peter Selinger 2001-2017
</metadata>
<g transform="translate(0.000000,324.000000) scale(0.100000,-0.100000)"
fill="#000000" stroke="none">
<path d="M0 1615 l0 -1355 1620 0 1620 0 0 1355 0 1355 -1620 0 -1620 0 0
-1355z m1693 775 c68 -26 168 -113 199 -174 26 -51 38 -100 28 -116 -13 -21
-86 3 -203 65 -133 71 -232 104 -329 112 -43 3 -78 9 -78 13 0 6 51 56 81 78
10 7 41 22 70 33 67 24 149 21 232 -11z m320 -76 c21 -13 47 -39 57 -57 21
-33 27 -111 11 -122 -5 -3 -24 18 -41 47 -45 76 -77 120 -108 146 l-27 23 35
-6 c19 -3 52 -17 73 -31z m158 -76 c8 -15 8 -18 0 -14 -6 4 -16 16 -22 28 -8
15 -8 18 0 14 6 -4 16 -16 22 -28z m-661 -192 c52 -8 137 -18 188 -22 90 -6
96 -8 169 -56 l75 -49 11 30 11 29 41 -34 c48 -39 71 -43 80 -14 9 29 18 25
59 -24 49 -61 54 -77 72 -249 18 -173 14 -284 -17 -438 -34 -170 -75 -225
-162 -216 -32 3 -57 12 -75 29 -49 44 -73 49 -226 42 -120 -5 -157 -3 -246 15
-136 27 -165 26 -224 -5 -67 -35 -118 -29 -163 19 -45 50 -54 92 -60 262 l-5
150 46 176 c68 265 103 328 203 362 51 18 71 17 223 -7z m-504 -483 c23 -23
26 -32 20 -71 -3 -25 -6 -107 -6 -183 l0 -139 -25 0 c-31 0 -58 50 -85 158
-48 191 6 325 96 235z m1348 -92 c41 -46 25 -154 -45 -299 -27 -56 -48 -87
-65 -94 -38 -18 -44 -1 -28 72 8 36 17 114 21 175 6 102 8 112 34 137 32 33
59 36 83 9z m-835 -416 c42 -9 122 -14 201 -14 131 0 161 -4 124 -18 -10 -4
-25 -12 -32 -19 -19 -19 -94 -27 -191 -21 -120 7 -184 24 -227 58 l-37 29 46
0 c25 0 77 -7 116 -15z m-161 -28 c12 -33 86 -116 106 -118 6 -1 31 -3 56 -3
153 -5 169 -7 184 -22 15 -14 20 -14 61 6 44 22 105 83 105 107 0 21 21 25 35
7 46 -61 -18 -183 -124 -238 -33 -17 -77 -21 -85 -7 -8 12 -166 20 -198 9 -31
-11 -52 -2 -115 49 -71 59 -105 167 -67 221 21 30 28 28 42 -11z"/>
<path d="M1220 1740 c-13 -11 -21 -23 -18 -26 9 -8 48 19 48 33 0 17 -3 16
-30 -7z"/>
<path d="M2079 1686 c39 -41 49 -40 29 1 -8 17 -23 29 -38 31 -24 4 -24 3 9
-32z"/>
<path d="M1127 1617 c-44 -13 -55 -39 -33 -81 l15 -29 7 38 c4 21 18 49 32 62
14 13 23 22 21 22 -2 -1 -21 -6 -42 -12z"/>
<path d="M1928 1573 c12 -2 32 -2 45 0 12 2 2 4 -23 4 -25 0 -35 -2 -22 -4z"/>
<path d="M1297 1530 c-13 -11 -28 -31 -31 -45 -10 -41 8 -61 65 -73 51 -9 54
-9 81 18 36 36 36 72 2 99 -34 26 -84 27 -117 1z m46 -12 c7 -21 -4 -38 -23
-38 -10 0 -20 6 -23 13 -7 20 4 37 23 37 10 0 20 -6 23 -12z"/>
<path d="M2161 1516 c10 -17 19 -42 19 -55 l0 -24 20 26 c29 37 25 52 -19 69
l-39 16 19 -32z"/>
<path d="M1543 1515 c-3 -9 -3 -19 1 -22 3 -4 6 1 6 10 0 8 6 18 13 20 9 4 9
6 -1 6 -7 1 -15 -6 -19 -14z"/>
<path d="M1743 1523 c-15 -5 -17 -23 -4 -23 5 0 11 7 15 15 3 8 4 15 3 14 -1
0 -8 -3 -14 -6z"/>
<path d="M1875 1498 c-43 -25 -58 -75 -35 -118 8 -15 19 -18 67 -13 47 4 62 9
80 31 30 37 28 56 -8 86 -32 28 -71 33 -104 14z m30 -33 c0 -13 -8 -21 -22
-23 -17 -3 -23 2 -23 16 0 10 3 22 7 26 13 13 38 1 38 -19z"/>
<path d="M1741 1424 c0 -11 3 -14 6 -6 3 7 2 16 -1 19 -3 4 -6 -2 -5 -13z"/>
<path d="M2167 1387 c-4 -10 -7 -28 -6 -40 0 -21 1 -21 10 2 5 14 8 32 7 40
-3 13 -5 13 -11 -2z"/>
<path d="M1288 1253 c7 -3 16 -2 19 1 4 3 -2 6 -13 5 -11 0 -14 -3 -6 -6z"/>
</g>
</svg>
